<?xml version="1.0" encoding="utf-8"?>
<!-- Generator: Adobe Illustrator 27.0.0, SVG Export Plug-In . SVG Version: 6.00 Build 0)  -->
<svg version="1.1" id="Layer_1" xmlns="http://www.w3.org/2000/svg" xmlns:xlink="http://www.w3.org/1999/xlink" x="0px" y="0px"
	 viewBox="0 0 1366 60" style="enable-background:new 0 0 1366 60;" xml:space="preserve">
<style type="text/css">
	.st0{fill:#FFFFFF;stroke:#000000;stroke-miterlimit:10;}
	.st1{fill:#2B438F;}
</style>
<path class="st0" d="M-1.5,322.5"/>
<path class="st1" d="M1588.2,61.7l-1693.5-1.9l-0.5-23.9c9,0,41,11,63,10s59-25,78-25s49,25,61,25s18-6,30-6s49,1,55,1s18-4,31-4
	s37,10,53,10s27.5-11.5,42.5-11.5h9c17,0,34.8,12.2,56.8,11.2s59-21,78-21s49,31,61,31c12,0,18-16,30-16s49,1,55,1
	s19.2-6.2,32.2-6.2s38,12,54,12s22-15,55-14h4.1c33-1,39,14,55,14s41-12,54-12s26.2,6.2,32.2,6.2s43-1,55-1s18,16,30,16s42-31,61-31
	c19,0,56,20,78,21c22,1,39.8-11.2,56.8-11.2h9c15,0,26.5,11.5,42.5,11.5s40-10,53-10s25,4,31,4s43-1,55-1s18,6,30,6s42-25,61-25
	s56,24,78,25c22,1,54-10,63-10L1588.2,61.7z"/>
</svg>
