<?xml version="1.0" encoding="utf-8"?>
<!-- Generator: Adobe Illustrator 27.0.0, SVG Export Plug-In . SVG Version: 6.00 Build 0)  -->
<svg version="1.1" id="Layer_1" xmlns="http://www.w3.org/2000/svg" xmlns:xlink="http://www.w3.org/1999/xlink" x="0px" y="0px"
	 viewBox="0 0 1366 60" style="enable-background:new 0 0 1366 60;" xml:space="preserve">
<style type="text/css">
	.st0{fill:#FFFFFF;stroke:#000000;stroke-miterlimit:10;}
	.st1{fill:none;stroke:#2B438F;stroke-width:2;stroke-miterlimit:10;}
</style>
<path class="st0" d="M-1.5,322.5"/>
<path class="st1" d="M-104,23c9,0,41,11,63,10S18,8,37,8s49,25,61,25s18-6,30-6s49,1,55,1s18-4,31-4s37,10,53,10
	s27.5-11.5,42.5-11.5h9c17,0,34.83,12.18,56.83,11.18s59-21,78-21s49,31,61,31c12,0,18-16,30-16s49,1,55,1s19.17-6.18,32.17-6.18
	s38,12,54,12s22-15,55-14h4.06c33-1,39,14,55,14c16,0,41-12,54-12s26.17,6.18,32.17,6.18s43-1,55-1s18,16,30,16c12,0,42-31,61-31
	c19,0,56,20,77.99,21c22,1,39.83-11.18,56.83-11.18h9c15,0,26.5,11.5,42.5,11.5s40-10,53-10c13,0,25,4,31,4c6,0,43-1,55-1s18,6,30,6
	s42-25,61-25s56,24,77.99,25c22,1,54-10,63-10"/>
</svg>
